{"title":"TIMBER PITBUL FT KESHA 4K MASTERED [PhYsIcIaN].mp4","uid":11221072,"size":664341339,"categoryP":"video","categoryS":"other","magnet":"?xt=urn:btih:1e50c7d7094e4a7da61af482110da6a0e137a27b&amp;dn=TIMBER+PITBUL+FT+KESHA+4K+MASTERED+%5BPhYsIcIaN%5D.mp4&amp;tr=udp%3A%2F%2Ftracker.openbittorrent.com%3A80&amp;tr=udp%3A%2F%2Fopen.demonii.com%3A1337&amp;tr=udp%3A%2F%2Ftracker.coppersurfer.tk%3A6969&amp;tr=udp%3A%2F%2Fexodus.desync.com%3A6969","seeders":0,"leechers":1,"uploader":"physician","files":1,"time":1413385741,"description":"General\nComplete name                            : D:SONGSVIDEOTIMBER PITBUL FT KESHA 4K MASTERED [PhYsIcIaN].mp4\nFormat                                   : MPEG-4\nFormat profile                           : Base Media / Version 2\nCodec ID                                 : mp42\nFile size                                : 634 MiB\nDuration                                 : 3mn 34s\nOverall bit rate mode                    : Variable\nOverall bit rate                         : 24.8 Mbps\nEncoded date                             : UTC 2014-10-15 04:11:11\nTagged date                              : UTC 2014-10-15 04:11:40\nÂ©TIM                                     : 00:00:00:00\nÂ©TSC                                     : 24000\nÂ©TSZ                                     : 1001\n\nVideo\nID                                       : 1\nFormat                                   : AVC\nFormat/Info                              : Advanced Video Codec\nFormat profile                           : &lt;a class=&quot;__cf_email__&quot; href=&quot;/cdn-cgi/l/email-protection&quot; data-cfemail=&quot;632e020a0d232f564d52&quot;&gt;[email&amp;#160;protected]&lt;/a&gt;&lt;script cf-hash='f9e31' type=&quot;text/javascript&quot;&gt;\n/* &lt;![CDATA[ */!function(){try{var t=&quot;currentScript&quot;in document?document.currentScript:function(){for(var t=document.getElementsByTagName(&quot;script&quot;),e=t.length;e--;)if(t[e].getAttribute(&quot;cf-hash&quot;))return t[e]}();if(t&amp;&amp;t.previousSibling){var e,r,n,i,c=t.previousSibling,a=c.getAttribute(&quot;data-cfemail&quot;);if(a){for(e=&quot;&quot;,r=parseInt(a.substr(0,2),16),n=2;a.length-n;n+=2)i=parseInt(a.substr(n,2),16)^r,e+=String.fromCharCode(i);e=document.createTextNode(e),c.parentNode.replaceChild(e,c)}}}catch(u){}}();/* ]]&gt; */&lt;/script&gt;\nFormat settings, CABAC                   : Yes\nFormat settings, ReFrames                : 3 frames\nCodec ID                                 : avc1\nCodec ID/Info                            : Advanced Video Coding\nDuration                                 : 3mn 34s\nBit rate mode                            : Variable\nBit rate                                 : 24.2 Mbps\nMaximum bit rate                         : 25.0 Mbps\nWidth                                    : 3 840 pixels\nHeight                                   : 2 160 pixels\nDisplay aspect ratio                     : 16:9\nFrame rate mode                          : Constant\nFrame rate                               : 23.976 fps\nStandard                                 : NTSC\nColor space                              : YUV\nChroma subsampling                       : 4:2:0\nBit depth                                : 8 bits\nScan type                                : Progressive\nBits/(Pixel*Frame)                       : 0.122\nStream size                              : 617 MiB (97%)\nLanguage                                 : English\nEncoded date                             : UTC 2014-10-15 04:11:11\nTagged date                              : UTC 2014-10-15 04:11:11\n\nAudio\nID                                       : 2\nFormat                                   : AAC\nFormat/Info                              : Advanced Audio Codec\nFormat profile                           : LC\nCodec ID                                 : 40\nDuration                                 : 3mn 34s\nSource duration                          : 3mn 34s\nBit rate mode                            : Constant\nBit rate                                 : 637 Kbps\nChannel(s)                               : 6 channels\nChannel positions                        : Front: L C R, Side: L R, LFE\nSampling rate                            : 48.0 KHz\nCompression mode                         : Lossy\nStream size                              : 16.3 MiB (3%)\nSource stream size                       : 16.3 MiB (3%)\nLanguage                                 : English\nEncoded date                             : UTC 2014-10-15 04:11:11\nTagged date                              : UTC 2014-10-15 04:11:11\n\nSCREENSHOTS LINK.\n\nNOTE; NOT RECEIVE FULL REAL VISION EXPERIENCE THEN THIS HAS TOW CAUSES.\n1. SCREEN\n2. GRAPHICS CARDS.\n\nRECOMMENDATIONS \n\nFOR PC USERS USE THESE MONITORS\nASUS PB287Q\nACER XB280HK\nSAMSUNG U28D590D\n\nTVS.\nLG 4K TVS\nTOSHIBA 4K TVS\nSONY BRAVIA\n\nGRAPHICS CARD.\n\nATI HD 290 OR 295X2\nNVIDIA 780 TITAN AND 690 TITAN\n\nOR LOW PRICES ARE AS UNDER\nATI HD 5670\nATI HD 5800\n\nNVIDIA TESLA","torrent":{"xt":"urn:btih:1e50c7d7094e4a7da61af482110da6a0e137a27b","amp;dn":"TIMBER+PITBUL+FT+KESHA+4K+MASTERED+%5BPhYsIcIaN%5D.mp4","amp;tr":["udp%3A%2F%2Ftracker.openbittorrent.com%3A80","udp%3A%2F%2Fopen.demonii.com%3A1337","udp%3A%2F%2Ftracker.coppersurfer.tk%3A6969","udp%3A%2F%2Fexodus.desync.com%3A6969"],"infoHash":"1e50c7d7094e4a7da61af482110da6a0e137a27b","infoHashBuffer":{"type":"Buffer","data":[30,80,199,215,9,78,74,125,166,26,244,130,17,13,166,160,225,55,162,123]},"announce":[],"urlList":[]}}